<?xml version="1.0" encoding="UTF-8" standalone="no"?>
<!-- Created with Inkscape (http://www.inkscape.org/) -->

<svg
   xmlns:dc="http://purl.org/dc/elements/1.1/"
   xmlns:cc="http://creativecommons.org/ns#"
   xmlns:rdf="http://www.w3.org/1999/02/22-rdf-syntax-ns#"
   xmlns:svg="http://www.w3.org/2000/svg"
   xmlns="http://www.w3.org/2000/svg"
   xmlns:xlink="http://www.w3.org/1999/xlink"
   xmlns:sodipodi="http://sodipodi.sourceforge.net/DTD/sodipodi-0.dtd"
   xmlns:inkscape="http://www.inkscape.org/namespaces/inkscape"
   width="149.25755mm"
   height="165.26747mm"
   viewBox="0 0 149.25755 165.26747"
   version="1.1"
   id="svg8"
   inkscape:version="0.92.3 (2405546, 2018-03-11)"
   sodipodi:docname="HotNewLogo.svg">
  <defs
     id="defs2">
    <linearGradient
       inkscape:collect="always"
       id="linearGradient884">
      <stop
         style="stop-color:#fe0001;stop-opacity:1"
         offset="0"
         id="stop880" />
      <stop
         style="stop-color:#ff48d4;stop-opacity:1"
         offset="1"
         id="stop882" />
    </linearGradient>
    <linearGradient
       inkscape:collect="always"
       xlink:href="#linearGradient884"
       id="linearGradient886"
       x1="-283.35535"
       y1="62.731892"
       x2="-241.3053"
       y2="62.731892"
       gradientUnits="userSpaceOnUse" />
  </defs>
  <sodipodi:namedview
     id="base"
     pagecolor="#ffffff"
     bordercolor="#666666"
     borderopacity="1.0"
     inkscape:pageopacity="0.0"
     inkscape:pageshadow="2"
     inkscape:zoom="0.7"
     inkscape:cx="867.28402"
     inkscape:cy="259.09934"
     inkscape:document-units="mm"
     inkscape:current-layer="layer1"
     showgrid="false"
     inkscape:window-width="1920"
     inkscape:window-height="1005"
     inkscape:window-x="-9"
     inkscape:window-y="-9"
     inkscape:window-maximized="1"
     inkscape:snap-bbox="true"
     inkscape:bbox-paths="true"
     inkscape:bbox-nodes="true"
     inkscape:snap-bbox-edge-midpoints="true"
     inkscape:snap-bbox-midpoints="true"
     inkscape:object-paths="true"
     inkscape:snap-intersection-paths="true"
     inkscape:object-nodes="true"
     inkscape:snap-smooth-nodes="true"
     inkscape:snap-object-midpoints="true"
     inkscape:snap-center="true"
     showguides="true"
     inkscape:guide-bbox="true"
     fit-margin-top="0"
     fit-margin-left="0"
     fit-margin-right="0"
     fit-margin-bottom="0" />
  <metadata
     id="metadata5">
    <rdf:RDF>
      <cc:Work
         rdf:about="">
        <dc:format>image/svg+xml</dc:format>
        <dc:type
           rdf:resource="http://purl.org/dc/dcmitype/StillImage" />
        <dc:title></dc:title>
      </cc:Work>
    </rdf:RDF>
  </metadata>
  <g
     inkscape:label="Layer 1"
     inkscape:groupmode="layer"
     id="layer1"
     transform="translate(390.56272,10.211299)">
    <path
       style="opacity:1;fill:#000000;fill-opacity:1;stroke:none;stroke-width:30.23622131;stroke-linecap:round;stroke-linejoin:round;stroke-miterlimit:4;stroke-dasharray:none;stroke-dashoffset:0;stroke-opacity:1"
       d="m -1433.5742,-38.59375 c -3.8474,0 -6.9434,3.097894 -6.9434,6.945312 V 230.15234 c 0,3.84742 3.096,6.94532 6.9434,6.94532 h 58.8887 6.9433 v -6.94532 -97.63281 h 100.2129 v 97.63281 6.94532 h 6.9453 29.4434 29.4433 c 3.8475,0 6.9453,-3.0979 6.9453,-6.94532 V -31.648438 c 0,-3.847418 -3.0978,-6.945312 -6.9453,-6.945312 h -29.4433 -29.4434 -6.9453 v 6.945312 95.060547 h -100.2129 V -38.59375 h -6.9433 z M -1316.873,267.5 a 159.26929,159.26929 0 0 0 -159.2696,159.26953 159.26929,159.26929 0 0 0 159.2696,159.26953 159.26929,159.26929 0 0 0 159.2695,-159.26953 A 159.26929,159.26929 0 0 0 -1316.873,267.5 Z m 182.0312,19.8457 c -4.9667,0 -8.9648,3.99818 -8.9648,8.96485 v 51.5332 8.96484 h 79.375 v 207.45703 h 73.01754 V 356.80859 h 79.39453 v -34.73242 -25.76562 c 0,-4.96667 -3.99818,-8.96485 -8.96485,-8.96485 z m -182.6152,51.72071 a 87.548455,87.548455 0 0 1 87.5488,87.54882 87.548455,87.548455 0 0 1 -87.5488,87.54883 87.548455,87.548455 0 0 1 -87.5469,-87.54883 87.548455,87.548455 0 0 1 87.5469,-87.54882 z"
       transform="scale(0.26458333)"
       id="rect862"
       inkscape:connector-curvature="0" />
    <rect
       style="opacity:1;fill:url(#linearGradient886);fill-opacity:1;stroke:none;stroke-width:8;stroke-linecap:round;stroke-linejoin:round;stroke-miterlimit:4;stroke-dasharray:none;stroke-dashoffset:0;stroke-opacity:1"
       id="rect876"
       width="61.326839"
       height="72.943192"
       x="-302.63214"
       y="-10.211299"
       rx="0"
       ry="0" />
  </g>
</svg>
