<svg xmlns="http://www.w3.org/2000/svg" xmlns:xlink="http://www.w3.org/1999/xlink" viewBox="0 0 783.8 303.7">
  <g>
    <rect x="243.8" width="43.9" height="303.7"/>
    <rect x="367.2" y="33.7" width="43.9" height="202.7"/>
    <path d="M682.6 33.8h-49v43.9h49c31.6 0 57.3 25.7 57.3 57.2 0 31.8-25.7 57.8-57.3 57.8h-49v43.9h49c55.8 0 101.2-45.6 101.2-101.6 0-55.9-45.4-101.2-101.2-101.2z"/>
    <polygon points="570.8 56.7 539.2 25.1 431.2 132.9 543 244.7 574.7 213 494.5 132.9"/>
    <path d="M0 65.8v25.7h33.6v138.1h37.5V34.9H41.8C36.6 53.2 20.8 65 0 65.8z"/>
    <path d="M114.6 65.8v25.7h33.6v138.1h37.5V34.9h-29.3c-5.2 18.3-21 30.1-41.8 30.9z"/>
  </g>
</svg>
