<?xml version="1.0" encoding="utf-8"?>
<!-- Generator: Adobe Illustrator 16.0.0, SVG Export Plug-In . SVG Version: 6.00 Build 0)  -->
<!DOCTYPE svg PUBLIC "-//W3C//DTD SVG 1.1//EN" "http://www.w3.org/Graphics/SVG/1.1/DTD/svg11.dtd">
<svg version="1.1" id="Layer_1" xmlns="http://www.w3.org/2000/svg" xmlns:xlink="http://www.w3.org/1999/xlink" x="0px" y="0px"
	 width="620px" height="604px" viewBox="0 0 620 604" enable-background="new 0 0 620 604" xml:space="preserve">
<filter  id="AI_GaussianBlur_7">
	<feGaussianBlur  stdDeviation="7"></feGaussianBlur>
</filter>
<g opacity="0.2" filter="url(#AI_GaussianBlur_7)">
	<path d="M542.92,218.406c0-0.005-0.002-0.011-0.004-0.017c-2.762-7.345-5.686-14.631-8.758-21.854
		c-0.051-0.122-0.104-0.241-0.15-0.363c-1.504-3.524-3.041-7.035-4.609-10.527c-0.021-0.048-0.041-0.096-0.064-0.146
		c-1.58-3.517-3.197-7.015-4.85-10.499c-0.104-0.224-0.209-0.445-0.316-0.669c-1.504-3.167-3.031-6.318-4.588-9.456
		c-0.193-0.389-0.387-0.779-0.576-1.167c-0.01-0.018-0.02-0.036-0.025-0.054c-0.004-0.006-0.008-0.012-0.01-0.017
		c-1.654-3.324-3.336-6.634-5.045-9.923c-0.02-0.033-0.031-0.068-0.051-0.101c0,0,0,0.002-0.002,0.002
		c-1.402-2.7-2.822-5.384-4.26-8.059c-0.332-0.628-0.672-1.253-1.012-1.88c-1.213-2.244-2.438-4.48-3.676-6.707
		c-0.43-0.776-0.855-1.551-1.287-2.324c-1.566-2.799-3.145-5.586-4.742-8.356c-0.906-1.442-1.82-2.888-2.74-4.336
		c-0.219-0.346-0.438-0.69-0.66-1.035c-0.725-1.141-1.451-2.282-2.186-3.424c-0.24-0.371-0.477-0.74-0.717-1.112
		c-0.77-1.191-1.535-2.383-2.314-3.574c-0.178-0.273-0.355-0.548-0.535-0.821c-3.605-5.523-7.316-11.041-11.158-16.482
		c-0.426-0.597-0.854-1.189-1.275-1.785c-0.027-0.041-0.059-0.08-0.086-0.12c-9.84-13.776-20.557-27.013-32.627-38.619
		c0-0.002,0-0.002,0-0.003c-0.066-0.063-0.135-0.124-0.199-0.186c-2.51-2.412-5.082-4.753-7.721-7.01
		c-0.053-0.044-0.104-0.091-0.156-0.137c-0.75-0.642-1.508-1.272-2.266-1.9c-0.285-0.237-0.574-0.474-0.863-0.708
		c-0.711-0.581-1.428-1.157-2.15-1.725c-0.332-0.263-0.67-0.521-1.004-0.78c-2.227-1.729-4.504-3.398-6.826-5.004
		c-0.533-0.373-1.072-0.747-1.617-1.114c-0.576-0.386-1.156-0.766-1.734-1.145c-0.607-0.396-1.217-0.786-1.834-1.172
		c-0.541-0.343-1.084-0.685-1.631-1.021c-0.766-0.47-1.537-0.928-2.314-1.382c-0.41-0.24-0.814-0.487-1.227-0.722
		c-1.16-0.665-2.334-1.31-3.516-1.943c-0.416-0.22-0.836-0.433-1.25-0.65c-0.846-0.44-1.695-0.874-2.551-1.297
		c-0.463-0.228-0.928-0.454-1.393-0.676c-0.873-0.417-1.746-0.823-2.627-1.222c-0.42-0.188-0.834-0.383-1.258-0.567
		c-1.275-0.56-2.559-1.107-3.861-1.629c-0.021-0.008-0.035-0.017-0.059-0.024c-0.426-0.15-0.855-0.286-1.283-0.429
		c0.375,0.124,0.75,0.25,1.127,0.379c-0.021-0.008-0.041-0.014-0.064-0.021c-1.66-0.574-3.334-1.106-5.02-1.594
		c-0.734-0.214-1.48-0.393-2.223-0.592c-1.02-0.273-2.039-0.553-3.066-0.797c-0.908-0.216-1.824-0.402-2.738-0.595
		c-0.867-0.182-1.729-0.373-2.594-0.538c-0.992-0.187-1.986-0.349-2.98-0.512c-0.428-0.069-0.85-0.153-1.277-0.219
		c0-0.002,0-0.005,0-0.007c-0.059-0.009-0.113-0.014-0.17-0.022c-0.063-0.009-0.121-0.023-0.184-0.032c0,0.003,0,0.006,0,0.007
		c-0.16-0.025-0.322-0.039-0.482-0.063c-1.381-0.204-2.768-0.378-4.154-0.539c-0.643-0.075-1.283-0.154-1.924-0.22
		c-1.422-0.145-2.844-0.259-4.268-0.361c-0.617-0.045-1.234-0.101-1.854-0.139c-1.496-0.089-2.99-0.146-4.484-0.191
		c-0.545-0.018-1.086-0.049-1.631-0.061c-2.029-0.045-4.053-0.058-6.076-0.032c-51.7,2.485-100.821,18.49-147.808,39.634
		c-0.186,0.084-0.372,0.168-0.559,0.251c-6.653,3.002-13.265,6.104-19.835,9.288c-0.458,0.221-0.916,0.444-1.373,0.666
		c-1.391,0.676-2.781,1.355-4.168,2.04c-0.536,0.265-1.075,0.533-1.614,0.798c-4.214,2.086-8.412,4.201-12.595,6.34
		c-0.854,0.438-1.709,0.873-2.561,1.313c-1.058,0.544-2.116,1.088-3.169,1.636c-1.014,0.526-2.03,1.053-3.042,1.583
		c-0.927,0.482-1.851,0.963-2.776,1.447c-1.836,0.962-3.667,1.927-5.496,2.894c-0.642,0.341-1.285,0.683-1.926,1.024
		c-1.385,0.736-2.77,1.472-4.15,2.21c-0.738,0.395-1.475,0.789-2.211,1.184c-1.353,0.724-2.7,1.449-4.049,2.175
		c-0.642,0.347-1.285,0.692-1.927,1.039c-1.954,1.054-3.9,2.109-5.846,3.165c-11.323,5.854-22.644,12.3-33.43,19.521
		c-0.099,0.065-0.196,0.131-0.293,0.196c-3.379,2.268-6.703,4.611-9.958,7.039c-0.156,0.118-0.314,0.237-0.472,0.355
		c-1.583,1.186-3.152,2.389-4.7,3.614c-0.013,0.01-0.028,0.02-0.04,0.03c-1.554,1.232-3.087,2.488-4.602,3.761
		c-0.208,0.175-0.413,0.352-0.619,0.526c-1.45,1.229-2.883,2.472-4.293,3.742c-0.04,0.037-0.085,0.074-0.125,0.113
		c-1.438,1.296-2.85,2.619-4.245,3.958c-0.236,0.229-0.47,0.458-0.705,0.688c-1.32,1.284-2.621,2.585-3.896,3.909
		c-0.059,0.06-0.116,0.117-0.172,0.176c-1.314,1.369-2.595,2.764-3.858,4.178c-0.251,0.281-0.498,0.564-0.746,0.845
		c-1.194,1.356-2.371,2.729-3.513,4.126c-0.056,0.071-0.116,0.139-0.175,0.209c-1.179,1.45-2.324,2.928-3.45,4.425
		c-0.248,0.331-0.494,0.662-0.737,0.994c-1.068,1.448-2.117,2.913-3.128,4.405c-0.047,0.067-0.095,0.132-0.14,0.202
		c-1.043,1.541-2.042,3.115-3.021,4.706c-0.231,0.374-0.457,0.752-0.686,1.128c-0.939,1.566-1.86,3.149-2.739,4.762
		c-0.025,0.045-0.05,0.09-0.077,0.137c-0.891,1.646-1.734,3.323-2.557,5.019c-0.201,0.415-0.399,0.83-0.595,1.249
		c-0.808,1.714-1.592,3.446-2.322,5.212c-0.86,1.951-1.673,3.911-2.451,5.875c-0.251,0.638-0.482,1.279-0.725,1.919
		c-0.511,1.333-1.016,2.665-1.487,4.003c-0.076,0.211-0.161,0.419-0.234,0.628c-0.192,0.552-0.358,1.111-0.544,1.661
		c-0.415,1.224-0.821,2.451-1.207,3.68c-0.254,0.809-0.497,1.619-0.737,2.431c-0.355,1.197-0.701,2.395-1.032,3.597
		c-0.224,0.822-0.445,1.644-0.66,2.466c-0.313,1.208-0.609,2.418-0.897,3.629c-0.194,0.812-0.388,1.624-0.57,2.437
		c-0.279,1.254-0.539,2.508-0.792,3.765c-0.155,0.772-0.318,1.54-0.462,2.313c-0.262,1.381-0.497,2.764-0.728,4.148
		c-0.107,0.649-0.229,1.297-0.331,1.948c-0.319,2.028-0.609,4.058-0.863,6.093c-0.021,0.162-0.034,0.325-0.053,0.487
		c-0.231,1.876-0.439,3.753-0.62,5.635c-0.072,0.744-0.125,1.489-0.188,2.233c-0.112,1.302-0.222,2.604-0.312,3.911
		c-0.058,0.865-0.103,1.732-0.152,2.598c-0.068,1.188-0.133,2.377-0.181,3.566c-0.04,0.918-0.068,1.838-0.094,2.758
		c-0.034,1.138-0.063,2.276-0.081,3.416c-0.019,0.95-0.028,1.902-0.032,2.854c-0.006,1.11-0.002,2.221,0.006,3.332
		c0.008,0.974,0.015,1.947,0.032,2.92c0.02,1.087,0.05,2.175,0.084,3.263c0.031,0.993,0.056,1.985,0.096,2.978
		c0.041,1.063,0.098,2.126,0.154,3.188c0.052,1.015,0.094,2.03,0.156,3.045c0.06,0.961,0.135,1.922,0.203,2.883
		c0.161,2.312,0.349,4.624,0.559,6.937c0.067,0.721,0.124,1.441,0.194,2.16c0.127,1.296,0.27,2.59,0.409,3.886
		c0.082,0.748,0.157,1.494,0.243,2.243c0.151,1.319,0.313,2.639,0.479,3.956c0.088,0.711,0.175,1.42,0.268,2.129
		c0.175,1.358,0.361,2.715,0.551,4.069c0.092,0.649,0.182,1.299,0.275,1.949c0.206,1.42,0.417,2.842,0.635,4.26
		c0.082,0.539,0.167,1.076,0.254,1.611c0.239,1.536,0.488,3.073,0.741,4.604c0.054,0.316,0.108,0.628,0.162,0.935
		c3.898,23.086,9.333,45.945,14.563,68.018c0.479,1.805,0.962,3.609,1.45,5.418c0.195,0.725,0.392,1.451,0.588,2.176
		c0.069,0.25,0.134,0.496,0.202,0.744c0.09,0.328,0.178,0.654,0.267,0.982c0.137,0.5,0.272,1,0.41,1.504
		c0.244,0.895,0.492,1.793,0.74,2.689c0.253,0.911,0.504,1.825,0.758,2.735c0.271,0.981,0.547,1.957,0.824,2.937
		c0.229,0.824,0.461,1.646,0.695,2.467c0.297,1.051,0.598,2.098,0.899,3.15c0.21,0.731,0.425,1.467,0.636,2.194
		c0.025,0.084,0.048,0.164,0.071,0.246c0.304,1.049,0.612,2.094,0.92,3.142c0.187,0.629,0.373,1.254,0.559,1.878
		c0.368,1.228,0.734,2.451,1.104,3.681c0.13,0.426,0.262,0.85,0.392,1.274c2.51,8.211,5.179,16.4,8.059,24.517
		c0.047,0.135,0.093,0.271,0.144,0.403c0.553,1.552,1.116,3.103,1.687,4.652c0.068,0.189,0.138,0.383,0.21,0.572
		c0.571,1.547,1.152,3.09,1.741,4.629c0.06,0.156,0.121,0.315,0.183,0.473c0.613,1.602,1.234,3.19,1.865,4.776
		c0.013,0.033,0.027,0.069,0.038,0.098c11.364,28.529,25.939,55.527,46.297,78.287c0.01,0.012,0.018,0.021,0.029,0.031
		c4.725,5.276,9.743,10.344,15.125,15.133c0.567,0.471,1.146,0.908,1.718,1.365c0.692,0.551,1.375,1.117,2.077,1.649
		c0.704,0.537,1.426,1.035,2.143,1.554c0.583,0.42,1.162,0.858,1.752,1.266c0.781,0.539,1.576,1.047,2.367,1.563
		c0.538,0.35,1.068,0.717,1.609,1.055c0.849,0.533,1.714,1.033,2.573,1.537c0.496,0.295,0.984,0.598,1.481,0.883
		c0.911,0.514,1.836,1.002,2.758,1.496c0.457,0.246,0.91,0.502,1.371,0.737c0.977,0.507,1.966,0.978,2.956,1.451
		c0.412,0.199,0.821,0.408,1.238,0.601c1.041,0.483,2.096,0.938,3.151,1.395c0.371,0.158,0.737,0.33,1.108,0.486
		c1.108,0.461,2.228,0.897,3.348,1.33c0.324,0.123,0.643,0.256,0.969,0.377c1.178,0.442,2.365,0.856,3.557,1.264
		c0.272,0.09,0.541,0.191,0.814,0.285c1.24,0.414,2.492,0.803,3.745,1.178c0.226,0.07,0.452,0.148,0.677,0.213
		c1.303,0.39,2.618,0.75,3.938,1.101c0.178,0.049,0.353,0.098,0.529,0.143c1.367,0.359,2.74,0.695,4.122,1.014
		c0.128,0.029,0.257,0.063,0.387,0.091c1.427,0.33,2.86,0.635,4.302,0.92c0.083,0.018,0.164,0.03,0.245,0.049
		c1.478,0.293,2.963,0.565,4.451,0.813c0.045,0.009,0.092,0.019,0.139,0.025c1.523,0.26,3.052,0.496,4.585,0.711
		c0.013,0.004,0.023,0.004,0.035,0.006c8.388,1.188,16.917,1.816,25.484,2.017c19.428,0.455,39.026-1.234,57.482-3.24
		c0.121-0.014,0.242-0.033,0.363-0.051c2.975-0.363,5.943-0.756,8.913-1.172c0.569-0.082,1.138-0.169,1.707-0.253
		c0.96-0.139,1.919-0.278,2.878-0.424c1.666-0.25,3.336-0.506,4.999-0.766c0.605-0.101,1.21-0.205,1.814-0.301
		c0.914-0.148,1.828-0.293,2.739-0.451c0.455-0.076,0.914-0.144,1.368-0.219c1.324-0.23,2.646-0.476,3.971-0.714
		c0.351-0.063,0.702-0.125,1.056-0.188c1.908-0.349,3.818-0.703,5.726-1.07c0.896-0.176,1.798-0.354,2.693-0.533
		c0.212-0.039,0.425-0.084,0.632-0.127c0.056-0.008,0.105-0.022,0.156-0.03v-0.002c2.883-0.576,5.755-1.177,8.628-1.81
		c0.527-0.113,1.055-0.219,1.578-0.336c3.641-0.809,7.27-1.66,10.885-2.551c0.691-0.168,1.377-0.34,2.066-0.513
		c3.246-0.813,6.48-1.655,9.711-2.526c0.482-0.129,0.965-0.258,1.445-0.39c1.148-0.315,2.301-0.635,3.449-0.963
		c0.281-0.078,0.566-0.159,0.846-0.241c2.273-0.642,4.543-1.298,6.805-1.979c0.385-0.109,0.76-0.227,1.141-0.342
		c0.039-0.016,0.086-0.029,0.129-0.037c0.574-0.174,1.152-0.35,1.729-0.525c2.422-0.744,4.836-1.5,7.244-2.274
		c0.555-0.183,1.113-0.355,1.666-0.537c0.23-0.076,0.463-0.152,0.695-0.229c2.295-0.752,4.582-1.524,6.863-2.313
		c0.572-0.199,1.148-0.394,1.719-0.59c2.916-1.017,5.818-2.054,8.713-3.125c0.016-0.006,0.031-0.013,0.045-0.019
		c1.721-0.637,3.438-1.297,5.15-1.955c0.258-0.096,0.514-0.192,0.768-0.293c7.336-2.823,14.6-5.826,21.783-9.006
		c0.137-0.063,0.271-0.121,0.406-0.18c0.051-0.027,0.102-0.047,0.152-0.068c0.141-0.065,0.283-0.129,0.42-0.19
		c7.453-3.32,14.818-6.828,22.084-10.533c0.047-0.025,0.1-0.047,0.148-0.076c7.324-3.736,14.553-7.672,21.664-11.797v0.002
		c0.045-0.027,0.086-0.051,0.125-0.076c2.518-1.465,5.02-2.951,7.508-4.461c0.133-0.08,0.27-0.16,0.398-0.244
		c2.396-1.459,4.781-2.938,7.146-4.442c0.229-0.146,0.461-0.287,0.688-0.438c2.252-1.43,4.482-2.885,6.705-4.357
		c0.336-0.223,0.674-0.444,1.012-0.668c2.086-1.395,4.164-2.811,6.229-4.241c0.445-0.31,0.889-0.611,1.332-0.92
		c1.945-1.354,3.875-2.736,5.797-4.121c0.531-0.39,1.07-0.767,1.602-1.156c1.832-1.334,3.643-2.688,5.445-4.053
		c0.598-0.451,1.195-0.89,1.789-1.341c1.795-1.37,3.576-2.764,5.348-4.166c0.572-0.448,1.145-0.883,1.713-1.338
		c2.314-1.84,4.611-3.709,6.891-5.602c1.168-0.941,2.32-1.904,3.463-2.881c0.209-0.181,0.416-0.363,0.625-0.547
		c0.963-0.828,1.912-1.666,2.857-2.519c0.166-0.151,0.332-0.309,0.502-0.461c1.014-0.928,2.018-1.86,3-2.813
		c0.076-0.074,0.156-0.148,0.234-0.226c27.439-26.515,45.07-62.759,45.307-101.431C572.561,319.78,561.467,267.778,542.92,218.406z"
		/>
</g>
<rect x="134.422" y="242.858" fill="#52347D" width="231.083" height="167.365"/>
<path fill="#414992" d="M263.901,458.822c0-23.285,43.378-119.7,7.623-119.7c-35.754,0-169.983,47.815-169.983,71.101
	c0,23.286,61.866,90.764,97.621,90.764C234.916,500.985,263.901,482.108,263.901,458.822z"/>
<path fill="#256CAA" d="M277.96,355.756c-50.838,0-188.113,107.432-150.778,154.744c1.483,1.88,5.811,8.312,7.24,10.249
	l144.205,47.857c15.549-13.197,25.083-30.987,25.083-50.563C303.709,477.338,328.799,355.756,277.96,355.756z"/>
<path fill="#414992" d="M384.172,187.821c0,30.041-47.709,113.615-126.81,113.615c-79.101,0-204.056-86.257-136.466-128.742
	c25.433-15.987,40.951-39.266,120.051-39.266C320.049,133.428,384.172,157.781,384.172,187.821z"/>
<path fill="#256CAA" d="M343.178,203.271c0,38.573-3.75,46.113-16.295,69.842c-43.924,83.076-206.053-66.841-191.182-128.741
	c12.158-36.607,132.034-10.943,158.875-10.943C321.418,133.429,343.178,164.698,343.178,203.271z"/>
<path fill="#1CA9C9" d="M189.773,121.757c10.518-21.568,91.793,65.101,115.933,65.101c24.14,0,43.707,19.453,43.707,43.449
	c0,23.996-36.732,20.339-43.707,43.449C294.752,343.5,145.182,164.5,189.773,121.757z"/>
<polygon fill="#47C473" points="257.362,482.961 421.508,504.848 331.473,179.131 249.964,171.5 "/>
<path fill="#FFD40D" d="M426.656,358.995c21.684-55.129,44.416-144.186,44.416-166.346c0-32.707-18.301-59.221-40.875-59.221
	s-146.352,16.738-147.086,41.197c-25.929-16.125,4.355,143.648,26.79,181.495c46.281,159.068,168.306,208.478,152.162,139.715
	C460.066,487.341,439.289,414.924,426.656,358.995z"/>
<path fill="#1CA9C9" d="M331.406,515.188c-5.064-9.654-52.34-70.973-45.752-125.688c-19.782-11.456-9.396-10.379-20.608,1.825
	c-1.48-2.55-3.08-4.103-4.788-4.276c-10.621-1.085-70.486,89.877-70.486,109.431s37.18,30.897,47.313,30.897
	c5.655,0,17.328-15.965,26.54-33.473h28.497v-6.355C308.627,495.557,336.557,525.009,331.406,515.188z"/>
<path fill="#FAA629" d="M546.82,479.672c15.443-50.787,47.201-143.868,47.201-169.734c0-38.469-14.988-69.653-33.473-69.653
	c-7.371,0-43,5.373-82.955,14.261c-2.496-11.723-3.945-21.175-3.945-27.457c0-49.949-13.689-90.44-30.576-90.44
	S298.067,99.635,295.182,149.5c-3.382,58.428,13.505,117.93,40.554,168.974c7.115,69.463,120.445,208.903,161.992,196.715
	L546.82,479.672z"/>
<path fill="#F66F09" d="M547.682,232l-73.426-122.552c-68.367-7.192-117.787-64.25-138.52,8.861
	c-16.42,57.895,7.441,201.376,35.072,174.992c0.082,1.012,0.244,2.008,0.49,2.984c-53.117,10.056,106.117,183.387,175.521,183.387
	L547.682,232z"/>
<path fill="#D4021C" d="M553.508,228.337L436.717,33.405c-29.463,18.79-58.934,54.502-68.967,110.53
	c-24.572,162.405,84.035,228.283,179.539,235.203L553.508,228.337z"/>
<g opacity="0.4" filter="url(#AI_GaussianBlur_7)">
	<path d="M548.682,482.172H241.428l0.031-0.046h-83.429V233.395h-38.248l17.512-31.941h54.764V442.95h17.799V186.756h-65.438
		l19.225-39.21h80.215v331.09l0.261-0.38l129.503-188.42c2.459-3.497,4.412-6.336,6.16-8.959l2.633-3.757
		c0.59-1.026,2.018-3.341,3.525-5.785c1.428-2.315,2.904-4.709,3.391-5.566c0.322-0.537,0.617-1.093,0.939-1.765v-0.476l0.447-0.472
		c0.086-0.178,0.176-0.352,0.266-0.523c0.09-0.171,0.213-0.405,0.236-0.49l0.029-0.102c0.166-0.538,0.357-1.1,0.551-1.641
		c0.303-1.009,0.545-2.06,0.703-3.045c0.201-1.289,0.295-2.342,0.295-3.305c0.043-2.332-0.313-4.61-1.027-6.635
		c-3.354-8.698-12.049-12.616-19.088-13.365c-14.578-0.664-24.467,11.278-24.508,22.435v2.595h-40.009l-0.198-2.283
		c-0.03-0.339-0.033-0.707-0.033-1.061l0.008-0.37c0.021-0.87,0.043-1.757,0.075-2.622c2.109-31.839,28.013-55.902,60.257-56.049
		c1.031,0,2.084,0,3.127,0.05c1,0.046,2.002,0.115,3.148,0.218c2.361,0.239,4.359,0.518,6.137,0.853
		c3.908,0.687,7.906,1.8,11.852,3.306c7.986,3.071,14.91,7.37,20.588,12.78c6.125,5.671,10.863,12.88,14.055,21.401
		c1.701,4.291,2.902,8.881,3.553,13.597c0.295,2.062,0.504,4.262,0.674,7.121l0.006,0.149c0,0.253,0.01,0.507,0.02,0.76
		c0.014,0.32,0.025,0.641,0.025,0.961c0,0.608,0,1.236-0.045,1.856c-0.006,1.238-0.104,2.438-0.197,3.601
		c-0.059,0.609-0.111,1.131-0.221,1.714c-0.902,5.844-2.398,10.102-5.148,14.603c-0.334,0.632-0.715,1.247-1.084,1.842
		c-0.152,0.243-0.303,0.487-0.451,0.733c-0.639,0.999-1.313,1.888-1.9,2.521L312.217,444.823h207.574L548.682,482.172z
		 M250.932,477.172h287.56l-21.154-27.349h-214.63l115.968-168.488c0.301-0.31,0.826-0.954,1.391-1.836
		c0.123-0.207,0.287-0.47,0.449-0.731c0.352-0.564,0.682-1.098,0.936-1.585l0.088-0.158c2.438-3.972,3.707-7.588,4.529-12.898
		c0.092-0.5,0.129-0.91,0.168-1.318c0.086-1.058,0.178-2.188,0.178-3.261l0.008-0.208c0.037-0.446,0.037-0.981,0.037-1.548
		c0-0.254-0.01-0.508-0.02-0.761c-0.014-0.294-0.023-0.588-0.025-0.881c-0.162-2.683-0.357-4.737-0.631-6.653
		c-0.598-4.332-1.697-8.531-3.268-12.495c-2.932-7.829-7.236-14.394-12.811-19.556c-5.225-4.977-11.594-8.923-18.955-11.755
		c-3.643-1.39-7.33-2.419-10.959-3.056c-1.666-0.314-3.525-0.572-5.717-0.794c-1.043-0.094-1.975-0.158-2.904-0.201
		c-0.93-0.044-1.922-0.044-2.883-0.044c-29.578,0.134-53.346,22.19-55.277,51.306c-0.012,0.345-0.021,0.707-0.033,1.079h30.328
		c1.35-12.913,12.996-25.833,29.691-25.021l0.137,0.011c8.523,0.885,19.127,5.714,23.33,16.614c0.936,2.649,1.389,5.535,1.336,8.412
		c0,0.555-0.025,1.136-0.076,1.757l2.531-2.638l-3.717,8.892h0.252l-1.039,2.169c-0.066,0.146-0.133,0.281-0.197,0.408l-0.48,1.004
		c-0.053,0.11-0.109,0.219-0.166,0.319l-4.629,11.076l-0.002-3.153c-0.025,0.043-0.053,0.086-0.078,0.129
		c-1.471,2.384-2.992,4.849-3.49,5.729l-0.129,0.205l-2.668,3.805c-1.738,2.609-3.713,5.481-6.182,8.991L250.932,477.172z
		 M163.031,477.126h75.828v-324.58h-72.098l-14.322,29.21h62.418V447.95h-27.799V206.453h-46.803l-12.029,21.941h34.805V477.126z
		 M501.963,423.747H350.25l80.686-115.798h-0.414l3.311-4.195c0.098-0.123,0.203-0.256,0.318-0.396l1.15-1.778h0.195
		c0.1-0.134,0.197-0.268,0.295-0.4l0.291-0.394c3.715-5.249,6.824-11.005,9.207-17.063c1.143-3.019,2.139-6.169,2.947-9.335
		c0.441-1.614,0.734-3.245,0.986-4.773c0.266-1.452,0.488-2.977,0.732-4.986c2.613-23.834-5.295-46.588-21.701-62.398
		c-7.473-7.237-16.426-12.892-26.619-16.812c-5.027-1.939-10.377-3.42-15.902-4.401c-2.436-0.447-5.09-0.782-8.363-1.059
		c-1.418-0.112-2.852-0.181-4.252-0.202c-1.523-0.047-2.932-0.046-4.379-0.001c-21.855,0.494-41.604,9.101-55.631,24.235
		c-13.292,14.342-20.043,32.927-19.008,52.333l0.141,2.633h-39.875l-0.135-2.357c-0.071-1.243-0.145-2.529-0.145-3.841
		c-0.061-1.751-0.035-3.595,0.075-5.396c0.88-27.542,12.462-53.563,32.609-73.195c20.395-19.874,47.97-31.497,77.644-32.729
		c1.73-0.081,3.58-0.118,5.98-0.118c1.926,0.022,3.775,0.087,5.709,0.155l0.275,0.01c3.975,0.203,7.945,0.617,11.844,1.233
		c7.564,1.127,15.24,3.035,22.789,5.67c14.742,5.146,28.166,12.858,39.895,22.922c24.631,21.103,38.674,50.15,39.539,81.79
		c0.049,2.103,0.049,4.214,0,6.284c-0.115,2.572-0.24,4.483-0.406,6.25c-0.342,4.524-1.086,8.824-1.693,12.06
		c-1.727,8.108-4.186,15.699-7.32,22.62c-0.365,0.826-0.758,1.641-1.146,2.445c-0.227,0.467-0.451,0.931-0.668,1.396l-0.094,0.183
		c-0.557,0.973-1.203,1.866-1.764,2.612l-0.467,0.632c-0.129,0.179-0.262,0.361-0.408,0.549l-0.264,0.477l-52.15,78.024h50.684
		L501.963,423.747z M359.828,418.747h132.268l-19.881-27.115h-57.506l57.742-86.472c0.145-0.173,0.262-0.34,0.379-0.501l0.518-0.702
		c0.457-0.607,0.967-1.311,1.379-2.016c0.213-0.452,0.43-0.903,0.648-1.356c0.365-0.756,0.734-1.521,1.086-2.315
		c2.996-6.613,5.342-13.859,6.982-21.559c0.572-3.051,1.287-7.174,1.613-11.5c0.162-1.729,0.281-3.565,0.393-5.999
		c0.045-1.939,0.045-3.971-0.002-5.984c-0.826-30.201-14.25-57.949-37.795-78.122c-11.256-9.656-24.137-17.058-38.289-21.997
		c-7.254-2.531-14.621-4.364-21.898-5.448c-3.748-0.592-7.543-0.988-11.301-1.181l-0.236-0.008c-1.893-0.066-3.707-0.13-5.564-0.152
		c-2.289,0-4.064,0.035-5.729,0.113c-58.372,2.423-103.712,45.913-105.48,101.163c-0.104,1.717-0.127,3.401-0.07,5.079
		c0,0.433,0.009,0.859,0.022,1.282h29.903c-0.388-19.811,6.812-38.672,20.43-53.365c14.955-16.135,35.966-25.31,59.166-25.834
		c1.51-0.047,3.078-0.047,4.627,0c1.467,0.022,3.01,0.096,4.545,0.218c3.451,0.291,6.258,0.647,8.844,1.121
		c5.826,1.035,11.486,2.603,16.811,4.657c10.822,4.161,20.344,10.178,28.297,17.881c17.525,16.889,25.98,41.153,23.193,66.567
		c-0.26,2.142-0.496,3.759-0.773,5.271c-0.268,1.618-0.588,3.402-1.08,5.195c-0.844,3.304-1.895,6.634-3.115,9.855
		c-2.541,6.462-5.842,12.575-9.824,18.198l-0.309,0.419c-0.377,0.513-0.766,1.042-1.213,1.564l-0.084,0.097l-0.438,0.645
		c-0.027,0.032-0.055,0.063-0.08,0.095l-0.23,0.338L359.828,418.747z"/>
</g>
<linearGradient id="SVGID_1_" gradientUnits="userSpaceOnUse" x1="157.2617" y1="96.9082" x2="490.7435" y2="534.6656">
	<stop  offset="0" style="stop-color:#FBFBFB"/>
	<stop  offset="1" style="stop-color:#E9EAE9"/>
</linearGradient>
<path fill="url(#SVGID_1_)" d="M581.037,221.485c0-0.005-0.002-0.011-0.004-0.017c-2.762-7.345-5.686-14.631-8.758-21.854
	c-0.051-0.122-0.104-0.241-0.15-0.363c-1.504-3.524-3.041-7.035-4.609-10.527c-0.023-0.048-0.041-0.096-0.064-0.146
	c-1.582-3.517-3.197-7.015-4.85-10.499c-0.104-0.224-0.209-0.445-0.316-0.669c-1.504-3.167-3.031-6.318-4.588-9.456
	c-0.193-0.389-0.387-0.779-0.578-1.167c-0.008-0.018-0.018-0.036-0.023-0.054c-0.004-0.006-0.008-0.012-0.01-0.017
	c-1.654-3.324-3.336-6.634-5.045-9.923c-0.02-0.033-0.031-0.068-0.051-0.101c0,0,0,0.002-0.002,0.002
	c-1.402-2.7-2.824-5.384-4.26-8.059c-0.332-0.628-0.672-1.253-1.012-1.88c-1.213-2.244-2.438-4.48-3.678-6.707
	c-0.428-0.776-0.854-1.551-1.285-2.324c-1.566-2.799-3.145-5.586-4.742-8.356c-0.906-1.442-1.82-2.888-2.74-4.336
	c-0.219-0.346-0.439-0.69-0.66-1.035c-0.725-1.141-1.453-2.282-2.186-3.424c-0.24-0.371-0.477-0.74-0.717-1.112
	c-0.77-1.191-1.535-2.383-2.314-3.574c-0.178-0.273-0.357-0.548-0.535-0.821c-3.605-5.523-7.316-11.041-11.16-16.482
	c-0.424-0.597-0.852-1.189-1.273-1.785c-0.027-0.041-0.059-0.08-0.086-0.12c-9.842-13.776-20.557-27.013-32.627-38.619
	c0-0.002,0-0.002,0-0.003c-0.066-0.063-0.137-0.124-0.199-0.186c-2.51-2.412-5.082-4.753-7.721-7.01
	c-0.053-0.044-0.104-0.091-0.156-0.137c-0.75-0.642-1.508-1.272-2.268-1.9c-0.285-0.237-0.572-0.474-0.861-0.708
	c-0.711-0.581-1.428-1.157-2.15-1.725c-0.332-0.263-0.67-0.521-1.004-0.78c-2.229-1.729-4.504-3.398-6.826-5.004
	c-0.535-0.373-1.074-0.747-1.617-1.114c-0.576-0.386-1.156-0.766-1.734-1.145c-0.607-0.396-1.217-0.786-1.834-1.172
	c-0.541-0.343-1.084-0.685-1.631-1.021c-0.766-0.47-1.537-0.928-2.314-1.382c-0.41-0.24-0.814-0.487-1.227-0.722
	c-1.16-0.665-2.334-1.31-3.516-1.943c-0.416-0.22-0.836-0.433-1.25-0.65c-0.846-0.44-1.695-0.874-2.551-1.297
	c-0.463-0.228-0.928-0.454-1.395-0.676c-0.871-0.417-1.744-0.823-2.625-1.222c-0.422-0.188-0.836-0.383-1.258-0.567
	c-1.275-0.56-2.559-1.107-3.861-1.629c-0.021-0.008-0.035-0.017-0.059-0.024c-0.426-0.15-0.855-0.286-1.285-0.429
	c0.375,0.124,0.75,0.25,1.129,0.379c-0.021-0.008-0.043-0.014-0.064-0.021c-1.66-0.574-3.334-1.106-5.021-1.594
	c-0.732-0.214-1.479-0.393-2.221-0.592c-1.02-0.273-2.039-0.553-3.068-0.797c-0.906-0.216-1.822-0.402-2.736-0.595
	c-0.867-0.182-1.729-0.373-2.594-0.538c-0.992-0.187-1.986-0.349-2.98-0.512c-0.428-0.069-0.85-0.153-1.279-0.219
	c0-0.002,0-0.005,0-0.007c-0.057-0.009-0.111-0.014-0.168-0.022c-0.063-0.009-0.121-0.023-0.184-0.032c0,0.003,0,0.006,0,0.007
	c-0.16-0.025-0.322-0.039-0.482-0.062c-1.381-0.204-2.768-0.378-4.154-0.539c-0.643-0.075-1.283-0.154-1.924-0.22
	c-1.422-0.145-2.844-0.259-4.268-0.361c-0.617-0.045-1.236-0.101-1.854-0.139c-1.496-0.089-2.99-0.146-4.484-0.191
	c-0.545-0.018-1.086-0.049-1.631-0.061c-2.029-0.045-4.055-0.058-6.076-0.032c-51.699,2.485-100.822,18.49-147.809,39.634
	c-0.186,0.084-0.372,0.168-0.559,0.251c-6.653,3.002-13.265,6.104-19.834,9.288c-0.458,0.221-0.917,0.444-1.374,0.666
	c-1.391,0.676-2.781,1.355-4.168,2.04c-0.536,0.265-1.075,0.533-1.614,0.798c-4.214,2.086-8.412,4.201-12.595,6.34
	c-0.854,0.438-1.709,0.873-2.561,1.313c-1.058,0.544-2.116,1.088-3.169,1.636c-1.014,0.526-2.03,1.053-3.042,1.583
	c-0.927,0.482-1.851,0.963-2.776,1.447c-1.836,0.962-3.667,1.927-5.496,2.894c-0.642,0.341-1.285,0.683-1.926,1.024
	c-1.385,0.736-2.77,1.472-4.15,2.21c-0.738,0.395-1.475,0.789-2.211,1.184c-1.353,0.724-2.7,1.449-4.049,2.175
	c-0.642,0.347-1.285,0.692-1.927,1.039c-1.954,1.054-3.9,2.109-5.846,3.165c-11.323,5.855-22.644,12.3-33.43,19.521
	c-0.099,0.065-0.196,0.131-0.293,0.196c-3.379,2.268-6.703,4.611-9.958,7.039c-0.156,0.118-0.314,0.237-0.472,0.355
	c-1.583,1.186-3.152,2.389-4.7,3.614c-0.013,0.01-0.028,0.02-0.04,0.03c-1.554,1.232-3.087,2.488-4.602,3.761
	c-0.208,0.175-0.413,0.352-0.619,0.526c-1.45,1.229-2.883,2.472-4.293,3.742c-0.04,0.037-0.085,0.074-0.125,0.113
	c-1.438,1.296-2.85,2.619-4.245,3.958c-0.236,0.229-0.47,0.458-0.705,0.688c-1.32,1.284-2.621,2.585-3.896,3.909
	c-0.059,0.06-0.116,0.117-0.172,0.176c-1.314,1.369-2.595,2.764-3.858,4.178c-0.251,0.281-0.498,0.564-0.746,0.845
	c-1.194,1.356-2.371,2.729-3.513,4.126c-0.056,0.071-0.116,0.139-0.175,0.209c-1.179,1.45-2.324,2.928-3.45,4.425
	c-0.248,0.331-0.494,0.662-0.737,0.994c-1.068,1.448-2.117,2.913-3.128,4.405c-0.047,0.067-0.095,0.132-0.14,0.202
	c-1.043,1.541-2.042,3.115-3.021,4.706c-0.231,0.374-0.457,0.752-0.686,1.128c-0.939,1.566-1.86,3.149-2.739,4.762
	c-0.025,0.045-0.05,0.09-0.077,0.137c-0.891,1.646-1.734,3.323-2.557,5.019c-0.201,0.415-0.399,0.83-0.595,1.249
	c-0.808,1.714-1.592,3.446-2.322,5.212c-0.86,1.951-1.673,3.911-2.451,5.875c-0.251,0.638-0.482,1.279-0.725,1.919
	c-0.511,1.333-1.016,2.665-1.487,4.003c-0.076,0.211-0.161,0.419-0.234,0.628c-0.192,0.552-0.358,1.111-0.544,1.661
	c-0.415,1.224-0.821,2.451-1.207,3.68c-0.254,0.809-0.497,1.619-0.737,2.431c-0.355,1.197-0.701,2.395-1.032,3.597
	c-0.224,0.822-0.445,1.644-0.66,2.466c-0.313,1.208-0.609,2.418-0.897,3.629c-0.194,0.812-0.388,1.624-0.57,2.437
	c-0.279,1.254-0.539,2.508-0.792,3.765c-0.155,0.772-0.318,1.54-0.462,2.313c-0.262,1.381-0.497,2.764-0.728,4.147
	c-0.107,0.649-0.229,1.297-0.331,1.948c-0.319,2.028-0.609,4.058-0.863,6.093c-0.021,0.162-0.034,0.325-0.053,0.487
	c-0.231,1.876-0.439,3.753-0.62,5.635c-0.072,0.744-0.125,1.489-0.188,2.233c-0.112,1.302-0.222,2.604-0.312,3.911
	c-0.058,0.865-0.103,1.732-0.152,2.598c-0.068,1.188-0.133,2.377-0.181,3.566c-0.04,0.918-0.068,1.838-0.094,2.758
	c-0.034,1.138-0.063,2.276-0.081,3.416c-0.019,0.95-0.028,1.902-0.032,2.854c-0.006,1.11-0.002,2.221,0.006,3.332
	c0.008,0.974,0.015,1.947,0.032,2.92c0.02,1.087,0.05,2.175,0.084,3.263c0.031,0.993,0.056,1.985,0.096,2.978
	c0.041,1.063,0.098,2.126,0.154,3.188c0.052,1.015,0.094,2.03,0.156,3.045c0.06,0.961,0.135,1.922,0.203,2.883
	c0.161,2.312,0.349,4.624,0.559,6.937c0.067,0.721,0.124,1.441,0.194,2.16c0.127,1.296,0.27,2.59,0.409,3.886
	c0.082,0.748,0.157,1.494,0.243,2.243c0.151,1.319,0.313,2.638,0.479,3.956c0.088,0.71,0.175,1.421,0.268,2.13
	c0.175,1.357,0.361,2.713,0.551,4.068c0.092,0.65,0.182,1.299,0.275,1.95c0.206,1.42,0.417,2.841,0.635,4.259
	c0.082,0.539,0.167,1.077,0.254,1.612c0.239,1.536,0.488,3.073,0.741,4.604c0.054,0.315,0.108,0.626,0.162,0.935
	c3.898,23.084,9.333,45.945,14.563,68.017c0.479,1.806,0.962,3.608,1.45,5.418c0.195,0.726,0.392,1.451,0.588,2.176
	c0.069,0.25,0.134,0.496,0.202,0.744c0.09,0.328,0.178,0.654,0.267,0.981c0.137,0.5,0.272,1,0.41,1.505
	c0.244,0.895,0.492,1.793,0.74,2.688c0.253,0.912,0.504,1.826,0.758,2.736c0.271,0.982,0.547,1.957,0.824,2.936
	c0.229,0.824,0.461,1.646,0.695,2.467c0.297,1.052,0.598,2.099,0.899,3.15c0.21,0.732,0.425,1.467,0.636,2.195
	c0.025,0.084,0.048,0.164,0.071,0.246c0.304,1.049,0.612,2.094,0.92,3.141c0.187,0.629,0.373,1.254,0.559,1.879
	c0.368,1.228,0.734,2.451,1.104,3.681c0.13,0.426,0.262,0.85,0.392,1.274c2.51,8.211,5.179,16.4,8.059,24.517
	c0.047,0.135,0.093,0.271,0.144,0.403c0.553,1.552,1.116,3.103,1.687,4.652c0.068,0.188,0.138,0.383,0.21,0.572
	c0.571,1.547,1.152,3.09,1.741,4.629c0.06,0.155,0.121,0.315,0.183,0.473c0.613,1.601,1.234,3.189,1.865,4.775
	c0.013,0.032,0.027,0.069,0.038,0.098c11.364,28.529,25.939,55.527,46.297,78.287c0.01,0.012,0.018,0.021,0.029,0.031
	c4.725,5.276,9.743,10.344,15.125,15.133c0.567,0.471,1.146,0.908,1.718,1.365c0.692,0.551,1.375,1.116,2.077,1.649
	c0.704,0.537,1.426,1.035,2.143,1.553c0.583,0.421,1.162,0.859,1.752,1.267c0.781,0.539,1.576,1.047,2.367,1.563
	c0.538,0.351,1.068,0.718,1.609,1.056c0.849,0.533,1.714,1.033,2.573,1.537c0.496,0.295,0.984,0.598,1.481,0.883
	c0.911,0.514,1.836,1.002,2.758,1.496c0.457,0.246,0.91,0.502,1.371,0.737c0.977,0.506,1.966,0.978,2.956,1.451
	c0.412,0.199,0.821,0.408,1.238,0.601c1.041,0.483,2.096,0.938,3.151,1.395c0.371,0.158,0.737,0.33,1.108,0.486
	c1.108,0.461,2.228,0.897,3.348,1.33c0.324,0.123,0.643,0.256,0.969,0.377c1.178,0.442,2.365,0.856,3.557,1.264
	c0.272,0.09,0.541,0.191,0.814,0.285c1.24,0.414,2.492,0.803,3.745,1.178c0.226,0.07,0.452,0.148,0.677,0.213
	c1.303,0.389,2.618,0.75,3.938,1.101c0.178,0.049,0.353,0.098,0.529,0.143c1.367,0.359,2.74,0.695,4.122,1.014
	c0.128,0.029,0.257,0.063,0.387,0.091c1.427,0.329,2.86,0.635,4.302,0.92c0.083,0.018,0.164,0.03,0.245,0.049
	c1.478,0.293,2.963,0.565,4.451,0.813c0.045,0.009,0.092,0.019,0.139,0.025c1.523,0.26,3.052,0.496,4.585,0.711
	c0.013,0.004,0.023,0.004,0.035,0.006c8.387,1.188,16.917,1.816,25.484,2.017c19.428,0.454,39.026-1.234,57.482-3.24
	c0.12-0.015,0.241-0.033,0.362-0.051c2.976-0.363,5.943-0.757,8.914-1.173c0.568-0.082,1.137-0.168,1.707-0.252
	c0.959-0.139,1.918-0.278,2.877-0.424c1.666-0.25,3.336-0.506,5-0.766c0.605-0.101,1.209-0.205,1.814-0.302
	c0.914-0.147,1.828-0.293,2.738-0.45c0.455-0.076,0.914-0.144,1.367-0.22c1.326-0.229,2.646-0.475,3.973-0.713
	c0.35-0.063,0.701-0.125,1.055-0.188c1.908-0.349,3.818-0.703,5.725-1.07c0.898-0.176,1.799-0.354,2.695-0.533
	c0.211-0.039,0.424-0.084,0.631-0.127c0.055-0.008,0.105-0.022,0.156-0.031v-0.002c2.883-0.575,5.756-1.176,8.629-1.809
	c0.527-0.113,1.055-0.219,1.578-0.336c3.641-0.81,7.268-1.66,10.885-2.551c0.691-0.168,1.377-0.341,2.066-0.513
	c3.246-0.813,6.48-1.655,9.711-2.526c0.482-0.129,0.965-0.259,1.443-0.39c1.15-0.315,2.303-0.635,3.449-0.963
	c0.283-0.078,0.568-0.16,0.848-0.242c2.273-0.641,4.543-1.297,6.805-1.979c0.385-0.109,0.76-0.227,1.139-0.342
	c0.041-0.017,0.088-0.029,0.129-0.037c0.576-0.174,1.154-0.35,1.73-0.525c2.422-0.744,4.836-1.5,7.244-2.274
	c0.555-0.183,1.113-0.355,1.666-0.537c0.23-0.076,0.463-0.152,0.693-0.229c2.295-0.752,4.584-1.524,6.865-2.313
	c0.572-0.199,1.148-0.394,1.719-0.59c2.916-1.017,5.818-2.054,8.713-3.125c0.016-0.007,0.031-0.013,0.045-0.019
	c1.721-0.637,3.438-1.297,5.15-1.955c0.256-0.096,0.514-0.192,0.768-0.293c7.336-2.824,14.6-5.826,21.783-9.006
	c0.137-0.063,0.271-0.121,0.406-0.18c0.051-0.027,0.102-0.047,0.152-0.068c0.141-0.065,0.283-0.129,0.42-0.19
	c7.453-3.32,14.818-6.828,22.084-10.533c0.047-0.025,0.098-0.047,0.148-0.076c7.324-3.736,14.553-7.672,21.664-11.797v0.002
	c0.043-0.027,0.084-0.051,0.123-0.076c2.52-1.465,5.021-2.951,7.51-4.461c0.133-0.08,0.27-0.16,0.398-0.244
	c2.396-1.459,4.781-2.939,7.146-4.443c0.229-0.145,0.461-0.286,0.688-0.438c2.252-1.43,4.482-2.885,6.705-4.357
	c0.336-0.223,0.674-0.444,1.01-0.668c2.086-1.395,4.166-2.811,6.23-4.241c0.443-0.31,0.889-0.611,1.332-0.921
	c1.943-1.354,3.875-2.735,5.797-4.12c0.531-0.39,1.07-0.767,1.6-1.156c1.834-1.334,3.645-2.688,5.447-4.054
	c0.598-0.45,1.195-0.889,1.789-1.34c1.795-1.371,3.576-2.764,5.348-4.166c0.572-0.448,1.145-0.883,1.713-1.338
	c2.314-1.84,4.611-3.709,6.891-5.602c1.168-0.941,2.318-1.904,3.463-2.881c0.209-0.181,0.416-0.363,0.625-0.547
	c0.963-0.828,1.912-1.666,2.857-2.519c0.166-0.152,0.33-0.309,0.502-0.461c1.014-0.928,2.018-1.861,3-2.813
	c0.076-0.074,0.156-0.148,0.234-0.226c27.439-26.514,45.07-62.758,45.307-101.43C610.678,322.859,599.584,270.857,581.037,221.485z
	 M244.592,184.256V445.45v34.176H215.59h-22.799h-29.026V445.45V230.895h-36.527l14.771-26.942h21.756h29.026v26.942V445.45h22.799
	V184.256h-63.927l16.772-34.21h47.155h29.002V184.256z M259.89,247.516c1.767-55.231,47.235-101.064,107.86-103.581
	c1.967-0.093,3.91-0.116,5.877-0.116c1.967,0.023,3.885,0.093,5.898,0.164c3.885,0.199,7.771,0.609,11.541,1.205
	c7.701,1.146,15.145,3.043,22.354,5.56c14.42,5.033,27.715,12.698,39.092,22.459c22.799,19.534,37.779,47.506,38.668,79.961
	c0.049,2.059,0.049,4.119,0,6.155c-0.092,2.037-0.209,4.086-0.396,6.076c-0.307,4.048-0.938,7.981-1.662,11.832
	c-1.639,7.701-3.98,15.075-7.141,22.05c-0.584,1.323-1.217,2.563-1.801,3.816c-0.469,0.818-1.031,1.604-1.592,2.352l-0.375,0.504
	c-0.188,0.257-0.373,0.526-0.607,0.808l-0.236,0.457l-54.75,81.914h54.096l23.549,32.115H358.271l80.686-115.798h-0.045
	c0.141-0.176,0.303-0.386,0.49-0.609l0.492-0.76h0.047c0.49-0.574,0.936-1.205,1.381-1.802c3.885-5.489,7.068-11.388,9.527-17.639
	c1.17-3.09,2.199-6.332,3.041-9.631c0.445-1.627,0.752-3.288,1.031-4.985c0.305-1.663,0.539-3.359,0.748-5.093
	c2.951-26.906-6.951-49.565-22.447-64.499c-7.771-7.526-17.111-13.366-27.457-17.345c-5.221-2.014-10.697-3.523-16.361-4.53
	c-2.811-0.515-5.688-0.843-8.592-1.088c-1.475-0.117-2.949-0.188-4.424-0.211c-1.498-0.046-2.996-0.046-4.494,0
	c-46.594,1.054-79.271,37.721-77.058,79.2h-34.877c-0.069-1.229-0.14-2.469-0.14-3.698
	C259.761,251.014,259.784,249.236,259.89,247.516z M477.416,479.672H340.621h-91.208l129.502-188.42
	c2.107-2.996,4.168-5.968,6.18-8.989l2.668-3.804c1.031-1.825,5.947-9.643,6.977-11.458c0.422-0.702,0.797-1.439,1.17-2.235
	c0.049-0.07,0.096-0.164,0.141-0.258c0,0-0.045,0-0.045,0.025c0.045-0.117,0.141-0.246,0.186-0.363
	c0.234-0.504,0.539-0.96,0.68-1.487c0.162-0.525,0.352-1.076,0.539-1.603c0.326-1.077,0.607-2.259,0.795-3.429
	c0.188-1.194,0.328-2.447,0.328-3.7c0.045-2.504-0.328-5.079-1.17-7.467c-3.699-9.597-13.25-14.197-21.256-15.028
	c-16.268-0.795-27.152,12.477-27.199,24.919c0,0.058,0,0.081,0,0.104h-35.217c-0.023-0.269-0.023-0.562-0.023-0.843
	c0.023-0.959,0.047-1.943,0.082-2.901c2.014-30.372,26.73-53.5,57.771-53.64c0.982,0,2.012,0,2.994,0.047
	c1.029,0.047,2.014,0.118,3.043,0.21c1.967,0.2,3.98,0.458,5.898,0.819c3.934,0.691,7.773,1.791,11.424,3.184
	c7.303,2.809,14.092,6.857,19.756,12.254c5.711,5.289,10.348,12.219,13.438,20.469c1.613,4.073,2.785,8.486,3.416,13.062
	c0.328,2.282,0.516,4.577,0.656,6.928c0,0.574,0.047,1.147,0.047,1.722c0,0.608,0,1.205-0.047,1.755c0,1.17-0.094,2.341-0.188,3.499
	c-0.047,0.48-0.094,0.96-0.188,1.462c-0.797,5.15-2.059,9.247-4.867,13.824c-0.424,0.818-0.984,1.661-1.5,2.515
	c-0.584,0.914-1.217,1.733-1.707,2.235L310.695,447.323h29.225h136.795h45.084l25.021,32.349H477.416z"/>
</svg>
