<?xml version="1.0" encoding="UTF-8" standalone="no"?>
<svg
   version="1.1"
   id="Layer_1"
   x="0px"
   y="0px"
   viewBox="0 0 312.26577 312.26578"
   xml:space="preserve"
   sodipodi:docname="Reshet13Logo2022.svg"
   inkscape:version="1.2.2 (b0a8486541, 2022-12-01)"
   width="312.26578"
   height="312.26578"
   xmlns:inkscape="http://www.inkscape.org/namespaces/inkscape"
   xmlns:sodipodi="http://sodipodi.sourceforge.net/DTD/sodipodi-0.dtd"
   xmlns="http://www.w3.org/2000/svg"
   xmlns:svg="http://www.w3.org/2000/svg"
   xmlns:rdf="http://www.w3.org/1999/02/22-rdf-syntax-ns#"
   xmlns:cc="http://creativecommons.org/ns#"
   xmlns:dc="http://purl.org/dc/elements/1.1/"><metadata
   id="metadata17"><rdf:RDF><cc:Work
       rdf:about=""><dc:format>image/svg+xml</dc:format><dc:type
         rdf:resource="http://purl.org/dc/dcmitype/StillImage" /><dc:title /></cc:Work></rdf:RDF></metadata><defs
   id="defs15">
	
	
</defs><sodipodi:namedview
   pagecolor="#ffffff"
   bordercolor="#666666"
   borderopacity="1"
   objecttolerance="10"
   gridtolerance="10"
   guidetolerance="10"
   inkscape:pageopacity="0"
   inkscape:pageshadow="2"
   inkscape:window-width="1600"
   inkscape:window-height="821"
   id="namedview13"
   showgrid="false"
   inkscape:zoom="1.4142136"
   inkscape:cx="-43.133513"
   inkscape:cy="99.702053"
   inkscape:window-x="0"
   inkscape:window-y="0"
   inkscape:window-maximized="1"
   inkscape:current-layer="Layer_1"
   inkscape:snap-bbox="true"
   inkscape:bbox-paths="true"
   inkscape:snap-bbox-midpoints="true"
   inkscape:snap-bbox-edge-midpoints="true"
   inkscape:bbox-nodes="true"
   inkscape:object-paths="true"
   inkscape:snap-intersection-paths="true"
   inkscape:snap-smooth-nodes="true"
   inkscape:snap-object-midpoints="true"
   inkscape:snap-center="true"
   showguides="true"
   inkscape:guide-bbox="true"
   inkscape:snap-global="true"
   fit-margin-top="0"
   fit-margin-left="0"
   fit-margin-right="0"
   fit-margin-bottom="0"
   inkscape:showpageshadow="2"
   inkscape:pagecheckerboard="0"
   inkscape:deskcolor="#d1d1d1" />
<style
   type="text/css"
   id="style2">
	.st0{fill:#161848;}
	.st1{fill:#65C5B3;}
	.st2{fill:#FED304;}
	.st3{fill:#ED2480;}
	.st4{fill:#F0EFEF;}
</style>

<rect
   style="fill:#000017;fill-opacity:1;stroke-width:10.9805;stroke-linecap:square;stroke-miterlimit:39.7;paint-order:fill markers stroke"
   id="rect1900"
   width="312.26578"
   height="312.26578"
   x="0"
   y="0" /><path
   id="path904"
   style="fill:#ffffff;fill-opacity:1;fill-rule:evenodd;stroke-width:0.465016"
   d="m 27.96057,0.0023065 c -7.937155,0 -14.326242,6.389088 -14.326242,14.3262425 V 310.32976 H 80.68902 V 0.0023065 Z M 234.73581,64.117679 171.9108,126.94269 c -4.55432,4.55434 -4.55432,11.88822 0,16.44255 l 29.03753,29.0346 c 0.006,0.006 0.01,0.0119 0.0176,0.0176 l 8.2007,8.20364 89.95199,-89.951994 4.9e-4,-26.569985 z m 39.94241,66.490341 -47.29659,47.08496 c 12.98418,13.04186 15.60481,32.94137 6.3989,48.9573 -9.20591,16.01594 -27.4299,23.55994 -45.08328,18.80871 -17.6534,-4.75122 -29.78706,-20.55585 -29.78706,-39.09883 H 92.172941 c 0,48.29402 32.558709,90.99595 79.179389,103.5434 46.62066,12.54748 96.22684,-8.12826 120.29164,-49.99488 24.06478,-41.86661 17.10196,-95.0816 -16.96575,-129.30066 z"
   sodipodi:nodetypes="sscccscccccccccccssccssc"
   transform="matrix(0.66448207,0,0,0.66448207,49.977343,51.961358)" /><path
   id="rect26"
   style="fill:#ff1381;fill-opacity:1;fill-rule:evenodd;stroke-width:0.465016"
   d="M 95.271484,0 V 64.119141 H 299.11915 V 0 Z"
   sodipodi:nodetypes="ccccc"
   transform="matrix(0.66448207,0,0,0.66448207,49.977343,51.961358)" /></svg>
